<svg width="102" height="43" viewBox="0 0 102 43" fill="none" xmlns="http://www.w3.org/2000/svg">
<path d="M0 43V31.2819C1.1432 31.2819 2.0986 30.9885 2.86618 30.4018C3.63376 29.815 4.24619 29.0019 4.70347 27.9626C5.17708 26.9232 5.54454 25.7162 5.80585 24.3415C6.06715 22.9501 6.27129 21.4749 6.41828 19.9158C6.59792 17.8538 6.75307 15.8337 6.88372 13.8556C7.01438 11.8606 7.13686 9.79863 7.25118 7.66959C7.38184 5.52378 7.52882 3.20195 7.69213 0.704093L30.695 0.754385V31.2819H33.3407V43H27.4614V36.9649H5.90384V43H0ZM9.18647 31.2819H24.7912V6.43742L13.0815 6.38713C12.9672 8.14737 12.8692 9.79025 12.7876 11.3158C12.7222 12.8246 12.6324 14.3585 12.5181 15.9175C12.4201 17.4766 12.2813 19.1782 12.1016 21.0222C11.9383 22.8327 11.7587 24.3415 11.5627 25.5485C11.3831 26.7556 11.1136 27.8033 10.7543 28.6918C10.395 29.5635 9.87239 30.4269 9.18647 31.2819Z" fill="black" fill-opacity="0.6"/>
<path d="M51.2214 37.7193C48.739 37.7193 46.567 37.3505 44.7052 36.6129C42.8597 35.8585 41.3082 34.8945 40.0507 33.7211C38.8095 32.5308 37.8541 31.2819 37.1845 29.9743L42.2309 26.4538C42.6229 27.3758 43.1945 28.2643 43.9458 29.1193C44.697 29.9575 45.6851 30.6532 46.9099 31.2064C48.1348 31.7429 49.6536 32.0111 51.4664 32.0111C53.2139 32.0111 54.6429 31.7429 55.7534 31.2064C56.864 30.67 57.6805 29.9659 58.2031 29.0942C58.7258 28.2224 58.9871 27.2752 58.9871 26.2526C58.9871 24.9786 58.6441 23.9979 57.9582 23.3105C57.2723 22.6064 56.374 22.1203 55.2635 21.852C54.1529 21.5671 52.9689 21.4078 51.7114 21.3743C50.5682 21.3407 49.7434 21.3156 49.2372 21.2988C48.7309 21.2821 48.3961 21.2737 48.2328 21.2737C48.0695 21.2737 47.9143 21.2737 47.7673 21.2737V15.5403C47.947 15.5403 48.2491 15.5403 48.6737 15.5403C49.1147 15.5403 49.5638 15.5403 50.0211 15.5403C50.4947 15.5236 50.8785 15.5068 51.1724 15.4901C53.0342 15.4062 54.5612 14.962 55.7534 14.1573C56.962 13.3526 57.5662 12.1624 57.5662 10.5865C57.5662 9.06101 57.0028 7.86238 55.8759 6.99064C54.7654 6.11891 53.2874 5.68304 51.4419 5.68304C49.7108 5.68304 48.1838 6.077 46.8609 6.86491C45.5544 7.65282 44.5663 8.58323 43.8968 9.65614L39.7567 5.33099C40.9489 3.83898 42.5657 2.58167 44.6072 1.55906C46.6649 0.519687 49.0004 0 51.6134 0C53.1485 0 54.6429 0.209551 56.0964 0.628654C57.5499 1.03099 58.8564 1.65127 60.0159 2.48947C61.1755 3.32768 62.0982 4.40058 62.7841 5.70819C63.4701 7.01579 63.813 8.57485 63.813 10.3854C63.813 12.045 63.5027 13.5789 62.8821 14.9871C62.2779 16.3786 61.4286 17.5185 60.3344 18.407C61.8859 19.0441 63.0863 20.0164 63.9355 21.324C64.8011 22.6316 65.2339 24.2828 65.2339 26.2778C65.2339 28.6248 64.6133 30.6532 63.3721 32.3632C62.1309 34.0731 60.4487 35.3975 58.3256 36.3363C56.2189 37.2583 53.8508 37.7193 51.2214 37.7193Z" fill="black" fill-opacity="0.6"/>
<path d="M68.6593 43V31.2819C69.8025 31.2819 70.7579 30.9885 71.5254 30.4018C72.293 29.815 72.9054 29.0019 73.3627 27.9626C73.8363 26.9232 74.2038 25.7162 74.4651 24.3415C74.7264 22.9501 74.9305 21.4749 75.0775 19.9158C75.2572 17.8538 75.4123 15.8337 75.543 13.8556C75.6736 11.8606 75.7961 9.79863 75.9104 7.66959C76.0411 5.52378 76.1881 3.20195 76.3514 0.704093L99.3543 0.754385V31.2819H102V43H96.1207V36.9649H74.5631V43H68.6593ZM77.8457 31.2819H93.4505V6.43742L81.7408 6.38713C81.6265 8.14737 81.5285 9.79025 81.4468 11.3158C81.3815 12.8246 81.2917 14.3585 81.1773 15.9175C81.0794 17.4766 80.9405 19.1782 80.7609 21.0222C80.5976 22.8327 80.4179 24.3415 80.222 25.5485C80.0423 26.7556 79.7728 27.8033 79.4136 28.6918C79.0543 29.5635 78.5316 30.4269 77.8457 31.2819Z" fill="black" fill-opacity="0.6"/>
</svg>
